<?xml version="1.0" standalone="no"?>
<!DOCTYPE svg PUBLIC "-//W3C//DTD SVG 20010904//EN"
 "http://www.w3.org/TR/2001/REC-SVG-20010904/DTD/svg10.dtd">
<svg version="1.0" xmlns="http://www.w3.org/2000/svg"
 width="310.000000pt" height="310.000000pt" viewBox="0 0 310.000000 310.000000"
 preserveAspectRatio="xMidYMid meet">

<g transform="translate(0.000000,310.000000) scale(0.100000,-0.100000)"
fill="#4cbd73" stroke="none">
<path d="M0 1550 l0 -1550 1550 0 1550 0 0 1550 0 1550 -1550 0 -1550 0 0
-1550z m1080 494 c0 -710 0 -716 55 -824 79 -156 262 -259 435 -247 183 13
335 126 412 307 l23 55 3 683 3 682 294 0 295 0 0 -668 c0 -570 -2 -682 -16
-763 -70 -408 -378 -741 -784 -845 -92 -24 -124 -28 -255 -28 -171 1 -249 14
-388 70 -340 136 -580 428 -648 789 -14 75 -16 254 -11 1008 l2 437 290 0 290
0 0 -656z"/>
</g>
</svg>
